<?xml version="1.0" encoding="utf-8"?>
<!-- Generator: Adobe Illustrator 24.0.1, SVG Export Plug-In . SVG Version: 6.00 Build 0)  -->
<svg version="1.1" id="Layer_1" xmlns="http://www.w3.org/2000/svg" xmlns:xlink="http://www.w3.org/1999/xlink" x="0px" y="0px"
	 viewBox="0 0 689.07 91.35" style="enable-background:new 0 0 689.07 91.35;" xml:space="preserve">
<style type="text/css">
	.st0{fill:#66757F;}
	.st1{fill:#CCD6DD;}
	.st2{fill:#DD2E44;}
	.st3{fill:#292F33;}
	.st4{fill:#197E66;}
</style>
<g>
	<g>
		<path class="st0" d="M68.38,9.74h5.09v2.55h-5.09V9.74z"/>
		<path class="st1" d="M0,30.14v51c0,5.63,4.57,10.2,10.2,10.2h61.2c5.63,0,10.2-4.57,10.2-10.2v-51H0z"/>
		<path class="st2" d="M71.4,9.74H10.2C4.57,9.74,0,14.31,0,19.94v12.75h81.6V19.94C81.6,14.31,77.03,9.74,71.4,9.74z"/>
		<path class="st3" d="M17.43,21.81c-1.79,0-3.24-1.7-3.24-3.8c0-2.1,1.45-3.8,3.24-3.8c1.79,0,3.24,1.7,3.24,3.8
			S19.22,21.81,17.43,21.81z M32.73,21.81c-1.79,0-3.24-1.7-3.24-3.8c0-2.1,1.45-3.8,3.24-3.8c1.79,0,3.24,1.7,3.24,3.8
			S34.52,21.81,32.73,21.81z M48.03,21.81c-1.79,0-3.24-1.7-3.24-3.8c0-2.1,1.45-3.8,3.24-3.8c1.79,0,3.24,1.7,3.24,3.8
			C51.27,20.11,49.82,21.81,48.03,21.81z M63.33,21.81c-1.79,0-3.24-1.7-3.24-3.8c0-2.1,1.45-3.8,3.24-3.8c1.79,0,3.24,1.7,3.24,3.8
			C66.57,20.11,65.12,21.81,63.33,21.81z"/>
		<path class="st0" d="M64.55,0c-3.26,0-6.08,2.05-7.63,5.02C55.37,2.11,52.54,0,49.25,0C46,0,43.18,2.05,41.62,5.02
			C40.07,2.11,37.24,0,33.95,0c-3.26,0-6.08,2.05-7.63,5.02C24.77,2.11,21.94,0,18.65,0c-4.93,0-8.93,4.64-8.93,10.21
			c0,4.73,2.66,8.6,6.55,10.01c1.94,0.7,3.12-1.14,2.96-2.62c-0.14-1.22-0.95-2.02-1.86-2.6c-1.24-0.78-2.55-2.57-2.55-4.79
			c0-2.82,1.71-5.34,3.83-5.34s3.83,2.31,3.83,4.86h2.59c-0.01,0.16-0.04,0.31-0.04,0.47c0,4.73,2.66,8.6,6.55,10.01
			c1.94,0.7,3.12-1.14,2.96-2.62c-0.14-1.22-0.95-2.02-1.86-2.59c-1.24-0.78-2.55-2.57-2.55-4.79c0-2.82,1.71-5.34,3.83-5.34
			s3.83,2.31,3.83,4.86h2.59c-0.01,0.16-0.04,0.31-0.04,0.47c0,4.73,2.66,8.6,6.55,10.01c1.94,0.7,3.12-1.14,2.96-2.62
			c-0.14-1.22-0.95-2.02-1.86-2.59c-1.24-0.78-2.55-2.57-2.55-4.79c0-2.82,1.71-5.34,3.83-5.34s3.83,2.31,3.83,4.86h2.59
			c-0.01,0.16-0.04,0.31-0.04,0.47c0,4.73,2.66,8.6,6.55,10.01c1.94,0.7,3.12-1.14,2.96-2.62c-0.14-1.22-0.95-2.02-1.86-2.59
			c-1.24-0.78-2.55-2.57-2.55-4.79c0-2.82,1.71-5.34,3.83-5.34c2.11,0,3.83,2.31,3.83,4.86h5.09C73.42,4.64,69.45,0,64.55,0z"/>
	</g>
	<g>
		<g>
			<path class="st0" d="M40.23,43.34c-6.14,0-11.33,4.67-11.33,10.2c0,1.88,1.52,3.4,3.4,3.4c1.88,0,3.4-1.52,3.4-3.4
				c0-1.13,1.77-3.4,4.53-3.4c3.4,0,5.67,2.27,5.67,4.53c0,4.53-6.12,5.66-6.8,5.67c-1.88,0-3.4,1.52-3.4,3.4v4.53
				c0,1.88,1.52,3.4,3.4,3.4c1.88,0,3.4-1.52,3.4-3.4v-1.51c0.9-0.18,1.91-0.45,2.93-0.85c4.69-1.82,7.27-5.41,7.27-10.11
				C52.7,50.12,49.3,43.34,40.23,43.34z"/>
			<circle class="st0" cx="39.1" cy="77.33" r="3.4"/>
		</g>
	</g>
</g>
<g>
	<g>
		<path class="st4" d="M133.47,73.16h-11.85V16.44h25.91c10.98,0,17.62,7.03,17.62,18.17c0,5.13-2.84,18.09-18.09,18.09h-13.59
			V73.16z M144.45,42.9c8.85,0,8.85-6.32,8.85-8.85c0-5.53-3.08-7.82-10.43-7.82h-9.4V42.9H144.45z"/>
		<path class="st4" d="M205.04,60.84c-2.92,10.11-11.3,13.43-18.49,13.43c-11.85,0-20.93-5.69-20.93-22.99
			c0-5.06,1.74-21.25,20.14-21.25c8.29,0,19.75,3.95,19.75,23.15v1.97h-28.83c0.32,3.16,0.95,10.27,9.87,10.27
			c3.08,0,6.24-1.58,7.11-4.58H205.04z M194.14,47.96c-0.63-6.79-4.98-8.85-8.53-8.85c-5.21,0-7.98,3.32-8.61,8.85H194.14z"/>
		<path class="st4" d="M210.66,31.13h10.58v7.27h0.16c2.29-4.27,4.82-8.37,11.53-8.37c0.71,0,1.42,0.08,2.13,0.16V41.4
			c-0.95-0.16-2.13-0.16-3.16-0.16c-8.61,0-10.19,5.37-10.19,10.03v21.88h-11.06V31.13z"/>
		<path class="st4" d="M276.7,31.13v39.81c0,7.27-0.55,19.35-21.25,19.35c-8.69,0-17.85-3.71-18.33-12.64h12.01
			c0.47,2.13,1.34,4.27,7.74,4.27c5.92,0,8.77-2.84,8.77-9.64v-5.06l-0.16-0.16c-1.82,3.24-4.58,6.32-11.22,6.32
			c-10.11,0-18.09-7.03-18.09-21.72c0-14.54,8.21-21.64,17.46-21.64c7.82,0,10.98,4.58,12.32,7.35h0.16v-6.24H276.7z M256.32,64.08
			c7.5,0,9.4-6.4,9.4-12.17c0-6.79-3.32-12.32-9.48-12.32c-4.11,0-8.69,3-8.69,12.8C247.55,57.76,249.76,64.08,256.32,64.08z"/>
		<path class="st4" d="M322.2,73.16h-10.58v-5.92h-0.16c-2.53,4.5-6.95,7.03-12.8,7.03c-8.29,0-14.3-4.74-14.3-15.48V31.13h11.06
			V57.2c0,6.48,3.79,7.74,7.19,7.74c3.63,0,8.53-2.05,8.53-9.56V31.13h11.06V73.16z"/>
		<path class="st4" d="M368.41,73.16h-11.06V47.64c0-3.08-0.16-8.29-7.19-8.29c-4.9,0-8.69,3.32-8.69,9.72v24.09h-11.06V31.13H341
			v6.16h0.16c1.5-2.53,4.66-7.27,12.64-7.27c8.21,0,14.61,4.82,14.61,14.06V73.16z"/>
		<path class="st4" d="M388.96,31.13h6.87v7.9h-6.87v22.83c0,2.45,0.08,3.4,4.58,3.4c0.71,0,1.5-0.08,2.29-0.16v8.37
			c-1.74,0.08-3.48,0.16-5.21,0.16h-1.42c-9.56,0-11.3-3.63-11.3-9.08V39.03h-5.69v-7.9h5.69V19.76h11.06V31.13z"/>
		<path class="st4" d="M434.77,64.94c0,4.98,1.11,6.08,2.45,6.56v1.66h-11.93c-0.63-1.97-0.79-2.61-1.03-4.98
			c-2.53,2.61-6.08,6.08-13.59,6.08c-6.32,0-12.8-3.55-12.8-12.24c0-8.21,5.21-12.4,12.24-13.43l9.95-1.5
			c1.74-0.24,3.87-0.95,3.87-3.32c0-4.66-4.42-4.9-7.27-4.9c-5.53,0-6.48,3.4-6.79,5.85h-10.66c1.26-12.88,10.19-14.69,18.8-14.69
			c5.92,0,16.75,1.82,16.75,12.17V64.94z M423.95,52.7c-1.11,0.87-2.92,1.58-7.5,2.29c-4.11,0.71-7.5,1.74-7.5,6.32
			c0,3.87,3,5.06,5.13,5.06c4.9,0,9.88-3.16,9.88-8.29V52.7z"/>
		<path class="st4" d="M500.74,73.16h-10.82v-5.29h-0.16c-2.69,4.74-7.58,6.4-12.17,6.4c-12.48,0-17.7-11.06-17.7-22.59
			c0-14.54,8.22-21.64,17.46-21.64c7.11,0,10.43,3.87,12.17,6.56h0.16V16.44h11.06V73.16z M480.36,65.18
			c7.03,0,9.79-5.85,9.79-12.09c0-6.71-1.9-13.51-9.48-13.51c-7.03,0-9.4,6.24-9.4,12.88C471.27,57.44,473.25,65.18,480.36,65.18z"
			/>
		<path class="st4" d="M527.52,74.27c-11.3,0-21.49-6.95-21.49-22.12s10.19-22.12,21.49-22.12c11.3,0,21.49,6.95,21.49,22.12
			S538.82,74.27,527.52,74.27z M527.52,39.35c-8.53,0-10.11,7.43-10.11,12.8c0,5.37,1.58,12.8,10.11,12.8
			c8.53,0,10.11-7.42,10.11-12.8C537.63,46.78,536.05,39.35,527.52,39.35z"/>
		<path class="st4" d="M575.32,16.44h25.04c19.12,0,23.07,16.27,23.07,27.02c0,12.17-4.82,29.7-23.54,29.7h-24.57V16.44z
			 M586.93,63.36h11.53c9.64,0,12.88-9.72,12.88-19.04c0-16.75-7.98-18.09-13.03-18.09h-11.38V63.36z"/>
		<path class="st4" d="M640.73,26.16h-11.06V15.89h11.06V26.16z M640.73,31.13v42.03h-11.06V31.13H640.73z"/>
		<path class="st4" d="M683.23,64.94c0,4.98,1.11,6.08,2.45,6.56v1.66h-11.93c-0.63-1.97-0.79-2.61-1.03-4.98
			c-2.53,2.61-6.08,6.08-13.59,6.08c-6.32,0-12.8-3.55-12.8-12.24c0-8.21,5.21-12.4,12.24-13.43l9.95-1.5
			c1.74-0.24,3.87-0.95,3.87-3.32c0-4.66-4.42-4.9-7.27-4.9c-5.53,0-6.48,3.4-6.79,5.85h-10.66c1.26-12.88,10.19-14.69,18.8-14.69
			c5.92,0,16.75,1.82,16.75,12.17V64.94z M672.4,52.7c-1.11,0.87-2.92,1.58-7.5,2.29c-4.11,0.71-7.5,1.74-7.5,6.32
			c0,3.87,3,5.06,5.13,5.06c4.9,0,9.88-3.16,9.88-8.29V52.7z"/>
	</g>
</g>
</svg>
