<?xml version="1.0" encoding="utf-8"?>
<!-- Generator: Adobe Illustrator 24.0.1, SVG Export Plug-In . SVG Version: 6.00 Build 0)  -->
<svg version="1.1" id="Layer_1" xmlns="http://www.w3.org/2000/svg" xmlns:xlink="http://www.w3.org/1999/xlink" x="0px" y="0px"
	 viewBox="0 0 689.1 91.3" style="enable-background:new 0 0 689.1 91.3;" xml:space="preserve">
<style type="text/css">
	.st0{fill:#66757F;}
	.st1{fill:#CCD6DD;}
	.st2{fill:#DD2E44;}
	.st3{fill:#292F33;}
	.st4{fill:#FFFFFF;}
</style>
<g>
	<g>
		<path class="st0" d="M68.4,9.7h5.1v2.6h-5.1V9.7z"/>
		<path class="st1" d="M0,30.1v51c0,5.6,4.6,10.2,10.2,10.2h61.2c5.6,0,10.2-4.6,10.2-10.2v-51H0z"/>
		<path class="st2" d="M71.4,9.7H10.2C4.6,9.7,0,14.3,0,19.9v12.8h81.6V19.9C81.6,14.3,77,9.7,71.4,9.7z"/>
		<path class="st3" d="M17.4,21.8c-1.8,0-3.2-1.7-3.2-3.8c0-2.1,1.5-3.8,3.2-3.8c1.8,0,3.2,1.7,3.2,3.8S19.2,21.8,17.4,21.8z
			 M32.7,21.8c-1.8,0-3.2-1.7-3.2-3.8c0-2.1,1.5-3.8,3.2-3.8c1.8,0,3.2,1.7,3.2,3.8S34.5,21.8,32.7,21.8z M48,21.8
			c-1.8,0-3.2-1.7-3.2-3.8c0-2.1,1.5-3.8,3.2-3.8c1.8,0,3.2,1.7,3.2,3.8C51.3,20.1,49.8,21.8,48,21.8z M63.3,21.8
			c-1.8,0-3.2-1.7-3.2-3.8c0-2.1,1.5-3.8,3.2-3.8c1.8,0,3.2,1.7,3.2,3.8C66.6,20.1,65.1,21.8,63.3,21.8z"/>
		<path class="st0" d="M64.6,0c-3.3,0-6.1,2-7.6,5c-1.5-2.9-4.4-5-7.7-5c-3.3,0-6.1,2-7.6,5c-1.5-2.9-4.4-5-7.7-5
			c-3.3,0-6.1,2-7.6,5c-1.5-2.9-4.4-5-7.7-5c-4.9,0-8.9,4.6-8.9,10.2c0,4.7,2.7,8.6,6.6,10c1.9,0.7,3.1-1.1,3-2.6
			c-0.1-1.2-1-2-1.9-2.6c-1.2-0.8-2.6-2.6-2.6-4.8c0-2.8,1.7-5.3,3.8-5.3s3.8,2.3,3.8,4.9h2.6c0,0.2,0,0.3,0,0.5
			c0,4.7,2.7,8.6,6.6,10c1.9,0.7,3.1-1.1,3-2.6c-0.1-1.2-1-2-1.9-2.6c-1.2-0.8-2.6-2.6-2.6-4.8c0-2.8,1.7-5.3,3.8-5.3
			s3.8,2.3,3.8,4.9h2.6c0,0.2,0,0.3,0,0.5c0,4.7,2.7,8.6,6.6,10c1.9,0.7,3.1-1.1,3-2.6c-0.1-1.2-1-2-1.9-2.6
			c-1.2-0.8-2.6-2.6-2.6-4.8c0-2.8,1.7-5.3,3.8-5.3s3.8,2.3,3.8,4.9h2.6c0,0.2,0,0.3,0,0.5c0,4.7,2.7,8.6,6.6,10
			c1.9,0.7,3.1-1.1,3-2.6c-0.1-1.2-1-2-1.9-2.6c-1.2-0.8-2.6-2.6-2.6-4.8c0-2.8,1.7-5.3,3.8-5.3c2.1,0,3.8,2.3,3.8,4.9h5.1
			C73.4,4.6,69.5,0,64.6,0z"/>
	</g>
	<g>
		<g>
			<path class="st0" d="M40.2,43.3c-6.1,0-11.3,4.7-11.3,10.2c0,1.9,1.5,3.4,3.4,3.4c1.9,0,3.4-1.5,3.4-3.4c0-1.1,1.8-3.4,4.5-3.4
				c3.4,0,5.7,2.3,5.7,4.5c0,4.5-6.1,5.7-6.8,5.7c-1.9,0-3.4,1.5-3.4,3.4v4.5c0,1.9,1.5,3.4,3.4,3.4c1.9,0,3.4-1.5,3.4-3.4v-1.5
				c0.9-0.2,1.9-0.4,2.9-0.8c4.7-1.8,7.3-5.4,7.3-10.1C52.7,50.1,49.3,43.3,40.2,43.3z"/>
			<circle class="st0" cx="39.1" cy="77.3" r="3.4"/>
		</g>
	</g>
</g>
<g>
	<g>
		<path class="st4" d="M133.5,73.2h-11.8V16.4h25.9c11,0,17.6,7,17.6,18.2c0,5.1-2.8,18.1-18.1,18.1h-13.6V73.2z M144.5,42.9
			c8.8,0,8.8-6.3,8.8-8.8c0-5.5-3.1-7.8-10.4-7.8h-9.4v16.7H144.5z"/>
		<path class="st4" d="M205,60.8c-2.9,10.1-11.3,13.4-18.5,13.4c-11.8,0-20.9-5.7-20.9-23c0-5.1,1.7-21.2,20.1-21.2
			c8.3,0,19.7,3.9,19.7,23.1v2h-28.8c0.3,3.2,0.9,10.3,9.9,10.3c3.1,0,6.2-1.6,7.1-4.6H205z M194.1,48c-0.6-6.8-5-8.8-8.5-8.8
			c-5.2,0-8,3.3-8.6,8.8H194.1z"/>
		<path class="st4" d="M210.7,31.1h10.6v7.3h0.2c2.3-4.3,4.8-8.4,11.5-8.4c0.7,0,1.4,0.1,2.1,0.2v11.2c-0.9-0.2-2.1-0.2-3.2-0.2
			c-8.6,0-10.2,5.4-10.2,10v21.9h-11.1V31.1z"/>
		<path class="st4" d="M276.7,31.1v39.8c0,7.3-0.6,19.4-21.3,19.4c-8.7,0-17.9-3.7-18.3-12.6h12c0.5,2.1,1.3,4.3,7.7,4.3
			c5.9,0,8.8-2.8,8.8-9.6v-5.1l-0.2-0.2c-1.8,3.2-4.6,6.3-11.2,6.3c-10.1,0-18.1-7-18.1-21.7c0-14.5,8.2-21.6,17.5-21.6
			c7.8,0,11,4.6,12.3,7.3h0.2v-6.2H276.7z M256.3,64.1c7.5,0,9.4-6.4,9.4-12.2c0-6.8-3.3-12.3-9.5-12.3c-4.1,0-8.7,3-8.7,12.8
			C247.5,57.8,249.8,64.1,256.3,64.1z"/>
		<path class="st4" d="M322.2,73.2h-10.6v-5.9h-0.2c-2.5,4.5-7,7-12.8,7c-8.3,0-14.3-4.7-14.3-15.5V31.1h11.1v26.1
			c0,6.5,3.8,7.7,7.2,7.7c3.6,0,8.5-2.1,8.5-9.6V31.1h11.1V73.2z"/>
		<path class="st4" d="M368.4,73.2h-11.1V47.6c0-3.1-0.2-8.3-7.2-8.3c-4.9,0-8.7,3.3-8.7,9.7v24.1h-11.1v-42H341v6.2h0.2
			c1.5-2.5,4.7-7.3,12.6-7.3c8.2,0,14.6,4.8,14.6,14.1V73.2z"/>
		<path class="st4" d="M389,31.1h6.9V39H389v22.8c0,2.4,0.1,3.4,4.6,3.4c0.7,0,1.5-0.1,2.3-0.2v8.4c-1.7,0.1-3.5,0.2-5.2,0.2h-1.4
			c-9.6,0-11.3-3.6-11.3-9.1V39h-5.7v-7.9h5.7V19.8H389V31.1z"/>
		<path class="st4" d="M434.8,64.9c0,5,1.1,6.1,2.4,6.6v1.7h-11.9c-0.6-2-0.8-2.6-1-5c-2.5,2.6-6.1,6.1-13.6,6.1
			c-6.3,0-12.8-3.6-12.8-12.2c0-8.2,5.2-12.4,12.2-13.4l10-1.5c1.7-0.2,3.9-0.9,3.9-3.3c0-4.7-4.4-4.9-7.3-4.9
			c-5.5,0-6.5,3.4-6.8,5.8h-10.7C400.5,31.8,409.4,30,418,30c5.9,0,16.7,1.8,16.7,12.2V64.9z M424,52.7c-1.1,0.9-2.9,1.6-7.5,2.3
			c-4.1,0.7-7.5,1.7-7.5,6.3c0,3.9,3,5.1,5.1,5.1c4.9,0,9.9-3.2,9.9-8.3V52.7z"/>
		<path class="st4" d="M500.7,73.2h-10.8v-5.3h-0.2c-2.7,4.7-7.6,6.4-12.2,6.4c-12.5,0-17.7-11.1-17.7-22.6
			c0-14.5,8.2-21.6,17.5-21.6c7.1,0,10.4,3.9,12.2,6.6h0.2V16.4h11.1V73.2z M480.4,65.2c7,0,9.8-5.8,9.8-12.1
			c0-6.7-1.9-13.5-9.5-13.5c-7,0-9.4,6.2-9.4,12.9C471.3,57.4,473.2,65.2,480.4,65.2z"/>
		<path class="st4" d="M527.5,74.3c-11.3,0-21.5-7-21.5-22.1S516.2,30,527.5,30c11.3,0,21.5,7,21.5,22.1S538.8,74.3,527.5,74.3z
			 M527.5,39.3c-8.5,0-10.1,7.4-10.1,12.8c0,5.4,1.6,12.8,10.1,12.8c8.5,0,10.1-7.4,10.1-12.8C537.6,46.8,536.1,39.3,527.5,39.3z"/>
		<path class="st4" d="M575.3,16.4h25c19.1,0,23.1,16.3,23.1,27c0,12.2-4.8,29.7-23.5,29.7h-24.6V16.4z M586.9,63.4h11.5
			c9.6,0,12.9-9.7,12.9-19c0-16.7-8-18.1-13-18.1h-11.4V63.4z"/>
		<path class="st4" d="M640.7,26.2h-11.1V15.9h11.1V26.2z M640.7,31.1v42h-11.1v-42H640.7z"/>
		<path class="st4" d="M683.2,64.9c0,5,1.1,6.1,2.4,6.6v1.7h-11.9c-0.6-2-0.8-2.6-1-5c-2.5,2.6-6.1,6.1-13.6,6.1
			c-6.3,0-12.8-3.6-12.8-12.2c0-8.2,5.2-12.4,12.2-13.4l10-1.5c1.7-0.2,3.9-0.9,3.9-3.3c0-4.7-4.4-4.9-7.3-4.9
			c-5.5,0-6.5,3.4-6.8,5.8h-10.7c1.3-12.9,10.2-14.7,18.8-14.7c5.9,0,16.7,1.8,16.7,12.2V64.9z M672.4,52.7
			c-1.1,0.9-2.9,1.6-7.5,2.3c-4.1,0.7-7.5,1.7-7.5,6.3c0,3.9,3,5.1,5.1,5.1c4.9,0,9.9-3.2,9.9-8.3V52.7z"/>
	</g>
</g>
</svg>
