<?xml version="1.0" encoding="utf-8"?>
<!-- Generator: Adobe Illustrator 24.0.1, SVG Export Plug-In . SVG Version: 6.00 Build 0)  -->
<svg version="1.1" id="Layer_1" xmlns="http://www.w3.org/2000/svg" xmlns:xlink="http://www.w3.org/1999/xlink" x="0px" y="0px"
	 viewBox="0 0 689.07 91.35" style="enable-background:new 0 0 689.07 91.35;" xml:space="preserve">
<style type="text/css">
	.st0{fill:#66757F;}
	.st1{fill:#CCD6DD;}
	.st2{fill:#DD2E44;}
	.st3{fill:#292F33;}
	.st4{fill:none;}
	.st5{fill:#FFFFFF;}
	.st6{font-family:'Helvetica-Bold';}
	.st7{font-size:79px;}
	.st8{letter-spacing:-2;}
</style>
<g>
	<g>
		<path class="st0" d="M68.38,9.74h5.09v2.55h-5.09V9.74z"/>
		<path class="st1" d="M0,30.14v51c0,5.63,4.57,10.2,10.2,10.2h61.2c5.63,0,10.2-4.57,10.2-10.2v-51H0z"/>
		<path class="st2" d="M71.4,9.74H10.2C4.57,9.74,0,14.31,0,19.94v12.75h81.6V19.94C81.6,14.31,77.03,9.74,71.4,9.74z"/>
		<path class="st3" d="M17.43,21.81c-1.79,0-3.24-1.7-3.24-3.8c0-2.1,1.45-3.8,3.24-3.8c1.79,0,3.24,1.7,3.24,3.8
			S19.22,21.81,17.43,21.81z M32.73,21.81c-1.79,0-3.24-1.7-3.24-3.8c0-2.1,1.45-3.8,3.24-3.8c1.79,0,3.24,1.7,3.24,3.8
			S34.52,21.81,32.73,21.81z M48.03,21.81c-1.79,0-3.24-1.7-3.24-3.8c0-2.1,1.45-3.8,3.24-3.8c1.79,0,3.24,1.7,3.24,3.8
			C51.27,20.11,49.82,21.81,48.03,21.81z M63.33,21.81c-1.79,0-3.24-1.7-3.24-3.8c0-2.1,1.45-3.8,3.24-3.8c1.79,0,3.24,1.7,3.24,3.8
			C66.57,20.11,65.12,21.81,63.33,21.81z"/>
		<path class="st0" d="M64.55,0c-3.26,0-6.08,2.05-7.63,5.02C55.37,2.11,52.54,0,49.25,0C46,0,43.18,2.05,41.62,5.02
			C40.07,2.11,37.24,0,33.95,0c-3.26,0-6.08,2.05-7.63,5.02C24.77,2.11,21.94,0,18.65,0c-4.93,0-8.93,4.64-8.93,10.21
			c0,4.73,2.66,8.6,6.55,10.01c1.94,0.7,3.12-1.14,2.96-2.62c-0.14-1.22-0.95-2.02-1.86-2.6c-1.24-0.78-2.55-2.57-2.55-4.79
			c0-2.82,1.71-5.34,3.83-5.34s3.83,2.31,3.83,4.86h2.59c-0.01,0.16-0.04,0.31-0.04,0.47c0,4.73,2.66,8.6,6.55,10.01
			c1.94,0.7,3.12-1.14,2.96-2.62c-0.14-1.22-0.95-2.02-1.86-2.59c-1.24-0.78-2.55-2.57-2.55-4.79c0-2.82,1.71-5.34,3.83-5.34
			s3.83,2.31,3.83,4.86h2.59c-0.01,0.16-0.04,0.31-0.04,0.47c0,4.73,2.66,8.6,6.55,10.01c1.94,0.7,3.12-1.14,2.96-2.62
			c-0.14-1.22-0.95-2.02-1.86-2.59c-1.24-0.78-2.55-2.57-2.55-4.79c0-2.82,1.71-5.34,3.83-5.34s3.83,2.31,3.83,4.86h2.59
			c-0.01,0.16-0.04,0.31-0.04,0.47c0,4.73,2.66,8.6,6.55,10.01c1.94,0.7,3.12-1.14,2.96-2.62c-0.14-1.22-0.95-2.02-1.86-2.59
			c-1.24-0.78-2.55-2.57-2.55-4.79c0-2.82,1.71-5.34,3.83-5.34c2.11,0,3.83,2.31,3.83,4.86h5.09C73.42,4.64,69.45,0,64.55,0z"/>
	</g>
	<g>
		<g>
			<path class="st0" d="M40.23,43.34c-6.14,0-11.33,4.67-11.33,10.2c0,1.88,1.52,3.4,3.4,3.4c1.88,0,3.4-1.52,3.4-3.4
				c0-1.13,1.77-3.4,4.53-3.4c3.4,0,5.67,2.27,5.67,4.53c0,4.53-6.12,5.66-6.8,5.67c-1.88,0-3.4,1.52-3.4,3.4v4.53
				c0,1.88,1.52,3.4,3.4,3.4c1.88,0,3.4-1.52,3.4-3.4v-1.51c0.9-0.18,1.91-0.45,2.93-0.85c4.69-1.82,7.27-5.41,7.27-10.11
				C52.7,50.12,49.3,43.34,40.23,43.34z"/>
			<circle class="st0" cx="39.1" cy="77.33" r="3.4"/>
		</g>
	</g>
</g>
<g>
	<rect x="115.62" y="16.44" class="st4" width="573.45" height="74.91"/>
	<text transform="matrix(1 0 0 1 115.6193 73.1597)" class="st5 st6 st7 st8">Pergunta do </text>
</g>
</svg>
