<?xml version="1.0" encoding="UTF-8"?>
<svg id="Layer_2" xmlns="http://www.w3.org/2000/svg" viewBox="0 0 81.6 91.35">
  <defs>
    <style>
      .cls-1 {
        fill: #292f33;
      }

      .cls-2 {
        fill: #ccd6dd;
      }

      .cls-3 {
        fill: #66757f;
      }

      .cls-4 {
        fill: #dd2e44;
      }
    </style>
  </defs>
  <g id="Layer_1-2" data-name="Layer_1">
    <g>
      <g>
        <path class="cls-3" d="M68.38,9.74h5.09v2.55h-5.09v-2.55Z"/>
        <path class="cls-2" d="M0,30.14v51c0,5.63,4.57,10.2,10.2,10.2h61.2c5.63,0,10.2-4.57,10.2-10.2V30.14H0Z"/>
        <path class="cls-4" d="M71.4,9.74H10.2C4.57,9.74,0,14.31,0,19.94v12.75h81.6v-12.75c0-5.63-4.57-10.2-10.2-10.2Z"/>
        <path class="cls-1" d="M17.43,21.81c-1.79,0-3.24-1.7-3.24-3.8s1.45-3.8,3.24-3.8,3.24,1.7,3.24,3.8-1.45,3.8-3.24,3.8ZM32.73,21.81c-1.79,0-3.24-1.7-3.24-3.8s1.45-3.8,3.24-3.8,3.24,1.7,3.24,3.8-1.45,3.8-3.24,3.8ZM48.03,21.81c-1.79,0-3.24-1.7-3.24-3.8s1.45-3.8,3.24-3.8,3.24,1.7,3.24,3.8c0,2.1-1.45,3.8-3.24,3.8ZM63.33,21.81c-1.79,0-3.24-1.7-3.24-3.8s1.45-3.8,3.24-3.8,3.24,1.7,3.24,3.8c0,2.1-1.45,3.8-3.24,3.8Z"/>
        <path class="cls-3" d="M64.55,0C61.3,0,58.48,2.05,56.92,5.02c-1.55-2.91-4.38-5.02-7.67-5.02s-6.08,2.05-7.63,5.02c-1.55-2.91-4.38-5.02-7.67-5.02s-6.08,2.05-7.63,5.02c-1.55-2.91-4.38-5.02-7.67-5.02-4.93,0-8.93,4.64-8.93,10.21,0,4.73,2.66,8.6,6.55,10.01,1.94.7,3.12-1.14,2.96-2.62-.14-1.22-.95-2.02-1.86-2.6-1.24-.78-2.55-2.57-2.55-4.79,0-2.82,1.71-5.34,3.83-5.34s3.83,2.31,3.83,4.86h2.59c0,.16-.04.31-.04.47,0,4.73,2.66,8.6,6.55,10.01,1.94.7,3.12-1.14,2.96-2.62-.14-1.22-.95-2.02-1.86-2.59-1.24-.78-2.55-2.57-2.55-4.79,0-2.82,1.71-5.34,3.83-5.34s3.83,2.31,3.83,4.86h2.59c0,.16-.04.31-.04.47,0,4.73,2.66,8.6,6.55,10.01,1.94.7,3.12-1.14,2.96-2.62-.14-1.22-.95-2.02-1.86-2.59-1.24-.78-2.55-2.57-2.55-4.79,0-2.82,1.71-5.34,3.83-5.34s3.83,2.31,3.83,4.86h2.59c0,.16-.04.31-.04.47,0,4.73,2.66,8.6,6.55,10.01,1.94.7,3.12-1.14,2.96-2.62-.14-1.22-.95-2.02-1.86-2.59-1.24-.78-2.55-2.57-2.55-4.79,0-2.82,1.71-5.34,3.83-5.34s3.83,2.31,3.83,4.86h5.09C73.42,4.64,69.45,0,64.55,0Z"/>
      </g>
      <g>
        <path class="cls-3" d="M40.23,43.34c-6.14,0-11.33,4.67-11.33,10.2,0,1.88,1.52,3.4,3.4,3.4s3.4-1.52,3.4-3.4c0-1.13,1.77-3.4,4.53-3.4,3.4,0,5.67,2.27,5.67,4.53,0,4.53-6.12,5.66-6.8,5.67-1.88,0-3.4,1.52-3.4,3.4v4.53c0,1.88,1.52,3.4,3.4,3.4s3.4-1.52,3.4-3.4v-1.51c.9-.18,1.91-.45,2.93-.85,4.69-1.82,7.27-5.41,7.27-10.11,0-5.69-3.4-12.46-12.46-12.46Z"/>
        <circle class="cls-3" cx="39.1" cy="77.33" r="3.4"/>
      </g>
    </g>
  </g>
</svg>